# xmcd
#
# Track frame offsets: 
#        150
#        14350
#        26707
#        37757
#        49857
#        63507
#        73850
#        86355
#        97442
#        117115
#        128687
#        138690
#        153155
#        169002
#        181237
#        198545
#        211442
#        223942
#
# Disc length: 3372 seconds
#
# Revision: 1
# Processed by: cddbd v1.5.2PL0 Copyright (c) Steve Scherf et al.
# Submitted via: ExactAudioCopy v0.99pb5
#
DISCID=090d2a12
DTITLE=Koko Taylor - What It Takes: The Chess Years [The Legendary Mas
DTITLE=ters Series]
DYEAR=1997
DGENRE=Blues
TTITLE0=Got what it takes
TTITLE1=Don't mess with the messer
TTITLE2=Whatever I am, you made me
TTITLE3=I´m a little mixed up
TTITLE4=Wang dang doodle
TTITLE5=(I got) All you need
TTITLE6=Love me
TTITLE7=What came first the egg or the hen
TTITLE8=Insane asylum
TTITLE9=Fire
TTITLE10=I don't care who knows
TTITLE11=Twenty nine ways (To my baby's door)
TTITLE12=Blue prelude
TTITLE13=I need more and more
TTITLE14=Um huh my baby
TTITLE15=Bills, bills and more bills
TTITLE16={unknown}
TTITLE17=I got what it takes
EXTD=
EXTT0=
EXTT1=
EXTT2=
EXTT3=
EXTT4=
EXTT5=
EXTT6=
EXTT7=
EXTT8=
EXTT9=
EXTT10=
EXTT11=
EXTT12=
EXTT13=
EXTT14=
EXTT15=
EXTT16=
EXTT17=
PLAYORDER=
